<svg preserveAspectRatio="none" overflow="visible" style="display: block;" width="32.4333" height="35.7667" viewBox="0 0 32.4333 35.7667" fill="none" xmlns="http://www.w3.org/2000/svg">
<g id="Group">
<path id="Vector" d="M8.09167 10.8C10.8531 10.8 13.0917 8.56142 13.0917 5.8C13.0917 3.03858 10.8531 0.8 8.09167 0.8C5.33024 0.8 3.09167 3.03858 3.09167 5.8C3.09167 8.56142 5.33024 10.8 8.09167 10.8Z" stroke="white" stroke-width="1.6" stroke-linecap="round" stroke-linejoin="round"/>
<path id="Vector_2" d="M0.8 34.9667V19.9667C0.8 15.8 4.13333 12.4667 8.09167 12.4667C12.05 12.4667 15.3833 15.8 15.3833 19.9667V34.9667M8.09167 18.3V34.9667" stroke="white" stroke-width="1.6" stroke-linecap="round" stroke-linejoin="round"/>
<path id="Vector_3" d="M25.3833 12.2583C27.6845 12.2583 29.55 10.3929 29.55 8.09167C29.55 5.79048 27.6845 3.925 25.3833 3.925C23.0821 3.925 21.2167 5.79048 21.2167 8.09167C21.2167 10.3929 23.0821 12.2583 25.3833 12.2583Z" stroke="white" stroke-width="1.6" stroke-linecap="round" stroke-linejoin="round"/>
<path id="Vector_4" d="M19.1333 32.8833V19.9667C19.1333 16.6333 21.8417 13.925 25.3833 13.925C28.925 13.925 31.6333 16.6333 31.6333 19.9667V32.8833M25.3833 18.3V32.8833" stroke="white" stroke-width="1.6" stroke-linecap="round" stroke-linejoin="round"/>
</g>
</svg>
